# MagicaVoxel @ Ephtracy

# group
o 

# material
mtllib Donut.mtl
usemtl palette

# normals
vn -1 0 0
vn 1 0 0
vn 0 0 1
vn 0 0 -1
vn 0 -1 0
vn 0 1 0

# texcoords
vt 0.0371094 0.5
vt 0.103516 0.5

# verts
v -1.2 0 1.1
v -1.2 0 -1.1
v -1.2 0.6 1.1
v -1.2 0.6 -1.1
v -1.2 0.8 1.1
v -1.2 0.8 -1.1
v -1.1 0 1.2
v -1.1 0 1.1
v -1.1 0 -1.1
v -1.1 0 -1.2
v -1.1 0.2 1.3
v -1.1 0.2 1.2
v -1.1 0.3 1.2
v -1.1 0.3 1.1
v -1.1 0.6 1.1
v -1.1 0.6 -1.1
v -1.1 0.6 -1.2
v -1.1 0.7 1.3
v -1.1 0.7 1.2
v -1.1 0.8 1.2
v -1.1 0.8 1.1
v -1.1 0.8 -1.1
v -1.1 0.8 -1.2
v -0.3 0.7 -1.2
v -0.3 0.7 -1.3
v -0.3 0.8 -1.2
v -0.3 0.8 -1.3
v -0.0999999 0.6 -1.2
v -0.0999999 0.6 -1.3
v -0.0999999 0.7 -1.2
v -0.0999999 0.7 -1.3
v 0.1 0.3 -1.2
v 0.1 0.3 -1.3
v 0.1 0.6 -1.2
v 0.1 0.6 -1.3
v 0.1 0.7 -1.2
v 0.1 0.7 -1.3
v 0.1 0.8 -1.2
v 0.1 0.8 -1.3
v 0.6 0.5 0.8
v 0.6 0.5 0.7
v 0.6 0.5 -0.7
v 0.6 0.5 -0.8
v 0.6 0.6 0.9
v 0.6 0.6 0.8
v 0.6 0.6 0.7
v 0.6 0.6 -0.7
v 0.6 0.6 -0.8
v 0.6 0.6 -0.9
v 0.6 0.8 0.9
v 0.6 0.8 0.8
v 0.6 0.8 -0.8
v 0.6 0.8 -0.9
v 0.7 0 0.8
v 0.7 0 -0.8
v 0.7 0.5 0.8
v 0.7 0.5 0.7
v 0.7 0.5 -0.7
v 0.7 0.5 -0.8
v 0.7 0.6 0.8
v 0.7 0.6 0.7
v 0.7 0.6 -0.7
v 0.7 0.6 -0.8
v 0.7 0.8 0.8
v 0.7 0.8 0.7
v 0.7 0.8 -0.7
v 0.7 0.8 -0.8
v 0.9 0.2 1.3
v 0.9 0.2 1.2
v 0.9 0.3 1.3
v 0.9 0.3 1.2
v 0.9 0.6 0.7
v 0.9 0.6 -0.7
v 0.9 0.8 0.7
v 0.9 0.8 -0.7
v 1 0.3 1.3
v 1 0.3 1.2
v 1 0.6 1.3
v 1 0.6 1.2
v -1 0.2 1.3
v -1 0.2 1.2
v -1 0.3 1.3
v -1 0.3 1.2
v -1 0.4 1.3
v -1 0.4 1.2
v -1 0.7 1.3
v -1 0.7 1.2
v -0.9 0.3 1.3
v -0.9 0.3 1.2
v -0.9 0.4 1.3
v -0.9 0.4 1.2
v -0.9 0.6 0.7
v -0.9 0.6 -0.7
v -0.9 0.8 0.7
v -0.9 0.8 -0.7
v -0.7 0 0.8
v -0.7 0 -0.7
v -0.7 0.5 0.8
v -0.7 0.5 0.7
v -0.7 0.5 -0.7
v -0.7 0.6 0.8
v -0.7 0.6 0.7
v -0.7 0.6 -0.7
v -0.7 0.6 -0.8
v -0.7 0.8 0.8
v -0.7 0.8 0.7
v -0.7 0.8 -0.7
v -0.7 0.8 -0.8
v -0.6 0.3 -0.7
v -0.6 0.3 -0.8
v -0.6 0.5 0.8
v -0.6 0.5 0.7
v -0.6 0.5 -0.8
v -0.6 0.6 0.9
v -0.6 0.6 0.8
v -0.6 0.6 0.7
v -0.6 0.6 -0.7
v -0.6 0.6 -0.8
v -0.6 0.6 -0.9
v -0.6 0.8 0.9
v -0.6 0.8 0.8
v -0.6 0.8 -0.8
v -0.6 0.8 -0.9
v -0.5 0 -0.7
v -0.5 0 -0.8
v -0.5 0.3 -0.7
v -0.5 0.3 -0.8
v -0.0999999 0.7 -1.2
v -0.0999999 0.7 -1.3
v -0.0999999 0.8 -1.2
v -0.0999999 0.8 -1.3
v 0.2 0.3 -1.2
v 0.2 0.3 -1.3
v 0.2 0.6 -1.2
v 0.2 0.8 -1.2
v 0.2 0.8 -1.3
v 1.1 0 1.2
v 1.1 0 1.1
v 1.1 0 -1.1
v 1.1 0 -1.2
v 1.1 0.1 1.2
v 1.1 0.1 1.1
v 1.1 0.2 1.3
v 1.1 0.2 1.2
v 1.1 0.3 1.2
v 1.1 0.3 1.1
v 1.1 0.6 1.3
v 1.1 0.6 1.2
v 1.1 0.6 1.1
v 1.1 0.6 -1.1
v 1.1 0.6 -1.2
v 1.1 0.8 1.2
v 1.1 0.8 1.1
v 1.1 0.8 -1.1
v 1.1 0.8 -1.2
v 1.2 0 1.1
v 1.2 0 -1.1
v 1.2 0.1 1.2
v 1.2 0.1 1.1
v 1.2 0.3 1.2
v 1.2 0.3 1.1
v 1.2 0.6 1.1
v 1.2 0.6 -1.1
v 1.2 0.8 1.1
v 1.2 0.8 -1.1
v -1.1 0.2 1.3
v -1.1 0.7 1.3
v -1 0.2 1.3
v -1 0.3 1.3
v -1 0.4 1.3
v -1 0.7 1.3
v -0.9 0.3 1.3
v -0.9 0.4 1.3
v 0.9 0.2 1.3
v 0.9 0.3 1.3
v 1 0.3 1.3
v 1 0.6 1.3
v 1.1 0.2 1.3
v 1.1 0.6 1.3
v -1.1 0 1.2
v -1.1 0.2 1.2
v -1.1 0.7 1.2
v -1.1 0.8 1.2
v -1 0.2 1.2
v -1 0.3 1.2
v -1 0.4 1.2
v -1 0.7 1.2
v -0.9 0.2 1.2
v -0.9 0.3 1.2
v -0.9 0.4 1.2
v -0.9 0.6 1.2
v 0.9 0.2 1.2
v 0.9 0.3 1.2
v 1 0.3 1.2
v 1 0.6 1.2
v 1.1 0 1.2
v 1.1 0.1 1.2
v 1.1 0.2 1.2
v 1.1 0.3 1.2
v 1.1 0.6 1.2
v 1.1 0.8 1.2
v 1.2 0.1 1.2
v 1.2 0.3 1.2
v -1.2 0 1.1
v -1.2 0.6 1.1
v -1.2 0.8 1.1
v -1.1 0 1.1
v -1.1 0.3 1.1
v -1.1 0.6 1.1
v -1.1 0.8 1.1
v 1.1 0 1.1
v 1.1 0.1 1.1
v 1.1 0.3 1.1
v 1.1 0.6 1.1
v 1.1 0.8 1.1
v 1.2 0 1.1
v 1.2 0.1 1.1
v 1.2 0.3 1.1
v 1.2 0.6 1.1
v 1.2 0.8 1.1
v -0.9 0.6 -0.7
v -0.9 0.8 -0.7
v -0.7 0 -0.7
v -0.7 0.5 -0.7
v -0.7 0.6 -0.7
v -0.7 0.8 -0.7
v -0.6 0.3 -0.7
v -0.6 0.6 -0.7
v -0.5 0 -0.7
v -0.5 0.3 -0.7
v 0.6 0.5 -0.7
v 0.6 0.6 -0.7
v 0.7 0.5 -0.7
v 0.7 0.6 -0.7
v 0.7 0.8 -0.7
v 0.9 0.6 -0.7
v 0.9 0.8 -0.7
v -0.7 0.6 -0.8
v -0.7 0.8 -0.8
v -0.6 0.3 -0.8
v -0.6 0.5 -0.8
v -0.6 0.6 -0.8
v -0.6 0.8 -0.8
v -0.5 0 -0.8
v -0.5 0.3 -0.8
v 0.6 0.5 -0.8
v 0.6 0.6 -0.8
v 0.6 0.8 -0.8
v 0.7 0 -0.8
v 0.7 0.5 -0.8
v 0.7 0.6 -0.8
v 0.7 0.8 -0.8
v -0.6 0.6 -0.9
v -0.6 0.8 -0.9
v 0.6 0.6 -0.9
v 0.6 0.8 -0.9
v -0.6 0.6 0.9
v -0.6 0.8 0.9
v 0.6 0.6 0.9
v 0.6 0.8 0.9
v -0.7 0 0.8
v -0.7 0.5 0.8
v -0.7 0.6 0.8
v -0.7 0.8 0.8
v -0.6 0.5 0.8
v -0.6 0.6 0.8
v -0.6 0.8 0.8
v 0.6 0.5 0.8
v 0.6 0.6 0.8
v 0.6 0.8 0.8
v 0.7 0 0.8
v 0.7 0.5 0.8
v 0.7 0.6 0.8
v 0.7 0.8 0.8
v -0.9 0.6 0.7
v -0.9 0.8 0.7
v -0.7 0.5 0.7
v -0.7 0.6 0.7
v -0.7 0.8 0.7
v -0.6 0.5 0.7
v -0.6 0.6 0.7
v 0.6 0.5 0.7
v 0.6 0.6 0.7
v 0.7 0.5 0.7
v 0.7 0.6 0.7
v 0.7 0.8 0.7
v 0.9 0.6 0.7
v 0.9 0.8 0.7
v -1.2 0 -1.1
v -1.2 0.6 -1.1
v -1.2 0.8 -1.1
v -1.1 0 -1.1
v -1.1 0.6 -1.1
v -1.1 0.8 -1.1
v 1.1 0 -1.1
v 1.1 0.6 -1.1
v 1.1 0.8 -1.1
v 1.2 0 -1.1
v 1.2 0.6 -1.1
v 1.2 0.8 -1.1
v -1.1 0 -1.2
v -1.1 0.6 -1.2
v -1.1 0.8 -1.2
v -0.3 0.7 -1.2
v -0.3 0.8 -1.2
v -0.0999999 0.6 -1.2
v -0.0999999 0.7 -1.2
v -0.0999999 0.8 -1.2
v 0.1 0.3 -1.2
v 0.1 0.6 -1.2
v 0.1 0.7 -1.2
v 0.1 0.8 -1.2
v 0.2 0.3 -1.2
v 0.2 0.6 -1.2
v 0.2 0.8 -1.2
v 1.1 0 -1.2
v 1.1 0.6 -1.2
v 1.1 0.8 -1.2
v -0.3 0.7 -1.3
v -0.3 0.8 -1.3
v -0.0999999 0.6 -1.3
v -0.0999999 0.7 -1.3
v -0.0999999 0.8 -1.3
v 0.1 0.3 -1.3
v 0.1 0.6 -1.3
v 0.1 0.7 -1.3
v 0.1 0.8 -1.3
v 0.2 0.3 -1.3
v 0.2 0.8 -1.3
v -1.1 0 1.2
v 1.1 0 1.2
v -1.2 0 1.1
v -1.1 0 1.1
v 1.1 0 1.1
v 1.2 0 1.1
v -0.7 0 0.8
v 0.7 0 0.8
v -0.7 0 -0.7
v -0.5 0 -0.7
v -0.7 0 -0.8
v -0.5 0 -0.8
v 0.7 0 -0.8
v -1.2 0 -1.1
v -1.1 0 -1.1
v 1.1 0 -1.1
v 1.2 0 -1.1
v -1.1 0 -1.2
v 1.1 0 -1.2
v 1.1 0.1 1.2
v 1.2 0.1 1.2
v 1.1 0.1 1.1
v 1.2 0.1 1.1
v -1.1 0.2 1.3
v -1 0.2 1.3
v 0.9 0.2 1.3
v 1.1 0.2 1.3
v -1.1 0.2 1.2
v -1 0.2 1.2
v 0.9 0.2 1.2
v 1.1 0.2 1.2
v -1 0.3 1.3
v -0.9 0.3 1.3
v -1 0.3 1.2
v -0.9 0.3 1.2
v 0.1 0.3 -1.2
v 0.2 0.3 -1.2
v 0.1 0.3 -1.3
v 0.2 0.3 -1.3
v -0.7 0.5 0.8
v -0.6 0.5 0.8
v 0.6 0.5 0.8
v 0.7 0.5 0.8
v -0.7 0.5 0.7
v -0.6 0.5 0.7
v 0.6 0.5 0.7
v 0.7 0.5 0.7
v 0.6 0.5 -0.7
v 0.7 0.5 -0.7
v 0.6 0.5 -0.8
v 0.7 0.5 -0.8
v -0.0999999 0.6 -1.2
v 0.1 0.6 -1.2
v -0.0999999 0.6 -1.3
v 0.1 0.6 -1.3
v -0.3 0.7 -1.2
v -0.0999999 0.7 -1.2
v -0.3 0.7 -1.3
v -0.0999999 0.7 -1.3
v 0.9 0.3 1.3
v 1 0.3 1.3
v 0.9 0.3 1.2
v 1 0.3 1.2
v 1.1 0.3 1.2
v 1.2 0.3 1.2
v 1.1 0.3 1.1
v 1.2 0.3 1.1
v -0.6 0.3 -0.7
v -0.5 0.3 -0.7
v -0.6 0.3 -0.8
v -0.5 0.3 -0.8
v -1 0.4 1.3
v -0.9 0.4 1.3
v -1 0.4 1.2
v -0.9 0.4 1.2
v 1 0.6 1.3
v 1.1 0.6 1.3
v 1 0.6 1.2
v 1.1 0.6 1.2
v -0.6 0.6 0.9
v 0.6 0.6 0.9
v -0.7 0.6 0.8
v -0.6 0.6 0.8
v 0.6 0.6 0.8
v 0.7 0.6 0.8
v -0.9 0.6 0.7
v -0.7 0.6 0.7
v -0.6 0.6 0.7
v 0.6 0.6 0.7
v 0.7 0.6 0.7
v 0.9 0.6 0.7
v -0.9 0.6 -0.7
v -0.7 0.6 -0.7
v -0.6 0.6 -0.7
v 0.6 0.6 -0.7
v 0.7 0.6 -0.7
v 0.9 0.6 -0.7
v -0.7 0.6 -0.8
v -0.6 0.6 -0.8
v 0.6 0.6 -0.8
v 0.7 0.6 -0.8
v -0.6 0.6 -0.9
v 0.6 0.6 -0.9
v -1.1 0.7 1.3
v -1 0.7 1.3
v -1.1 0.7 1.2
v -1 0.7 1.2
v -0.0999999 0.7 -1.2
v 0.1 0.7 -1.2
v -0.0999999 0.7 -1.3
v 0.1 0.7 -1.3
v -1.1 0.8 1.2
v 1.1 0.8 1.2
v -1.2 0.8 1.1
v -1.1 0.8 1.1
v 1.1 0.8 1.1
v 1.2 0.8 1.1
v -0.6 0.8 0.9
v 0.6 0.8 0.9
v -0.7 0.8 0.8
v -0.6 0.8 0.8
v 0.6 0.8 0.8
v 0.7 0.8 0.8
v -0.9 0.8 0.7
v -0.7 0.8 0.7
v 0.7 0.8 0.7
v 0.9 0.8 0.7
v -0.9 0.8 -0.7
v -0.7 0.8 -0.7
v 0.7 0.8 -0.7
v 0.9 0.8 -0.7
v -0.7 0.8 -0.8
v -0.6 0.8 -0.8
v 0.6 0.8 -0.8
v 0.7 0.8 -0.8
v -0.6 0.8 -0.9
v 0.6 0.8 -0.9
v -1.2 0.8 -1.1
v -1.1 0.8 -1.1
v 1.1 0.8 -1.1
v 1.2 0.8 -1.1
v -1.1 0.8 -1.2
v -0.3 0.8 -1.2
v -0.0999999 0.8 -1.2
v 0.1 0.8 -1.2
v 0.2 0.8 -1.2
v 1.1 0.8 -1.2
v -0.3 0.8 -1.3
v -0.0999999 0.8 -1.3
v 0.1 0.8 -1.3
v 0.2 0.8 -1.3

# faces
f 3/1/1 2/1/1 1/1/1
f 4/1/1 2/1/1 3/1/1
f 5/2/1 4/2/1 3/2/1
f 6/2/1 4/2/1 5/2/1
f 12/1/1 8/1/1 7/1/1
f 13/1/1 8/1/1 12/1/1
f 13/2/1 12/2/1 11/2/1
f 14/1/1 8/1/1 13/1/1
f 15/2/1 14/2/1 13/2/1
f 16/1/1 10/1/1 9/1/1
f 17/1/1 10/1/1 16/1/1
f 18/2/1 15/2/1 13/2/1
f 18/2/1 13/2/1 11/2/1
f 19/2/1 15/2/1 18/2/1
f 20/2/1 15/2/1 19/2/1
f 21/2/1 15/2/1 20/2/1
f 22/2/1 17/2/1 16/2/1
f 23/2/1 17/2/1 22/2/1
f 26/2/1 25/2/1 24/2/1
f 27/2/1 25/2/1 26/2/1
f 30/2/1 29/2/1 28/2/1
f 31/2/1 29/2/1 30/2/1
f 34/2/1 33/2/1 32/2/1
f 35/2/1 33/2/1 34/2/1
f 38/2/1 37/2/1 36/2/1
f 39/2/1 37/2/1 38/2/1
f 45/2/1 41/2/1 40/2/1
f 46/2/1 41/2/1 45/2/1
f 47/2/1 43/2/1 42/2/1
f 48/2/1 43/2/1 47/2/1
f 50/2/1 45/2/1 44/2/1
f 51/2/1 45/2/1 50/2/1
f 52/2/1 49/2/1 48/2/1
f 53/2/1 49/2/1 52/2/1
f 56/1/1 55/1/1 54/1/1
f 57/1/1 55/1/1 56/1/1
f 58/1/1 55/1/1 57/1/1
f 59/1/1 55/1/1 58/1/1
f 61/2/1 58/2/1 57/2/1
f 62/2/1 58/2/1 61/2/1
f 64/2/1 61/2/1 60/2/1
f 65/2/1 61/2/1 64/2/1
f 66/2/1 63/2/1 62/2/1
f 67/2/1 63/2/1 66/2/1
f 70/2/1 69/2/1 68/2/1
f 71/2/1 69/2/1 70/2/1
f 74/2/1 73/2/1 72/2/1
f 75/2/1 73/2/1 74/2/1
f 78/2/1 77/2/1 76/2/1
f 79/2/1 77/2/1 78/2/1
f 80/2/2 81/2/2 82/2/2
f 82/2/2 81/2/2 83/2/2
f 84/2/2 85/2/2 86/2/2
f 86/2/2 85/2/2 87/2/2
f 88/2/2 89/2/2 90/2/2
f 90/2/2 89/2/2 91/2/2
f 92/2/2 93/2/2 94/2/2
f 94/2/2 93/2/2 95/2/2
f 96/1/2 97/1/2 98/1/2
f 98/1/2 97/1/2 99/1/2
f 99/1/2 97/1/2 100/1/2
f 99/2/2 100/2/2 102/2/2
f 102/2/2 100/2/2 103/2/2
f 101/2/2 102/2/2 105/2/2
f 105/2/2 102/2/2 106/2/2
f 103/2/2 104/2/2 107/2/2
f 107/2/2 104/2/2 108/2/2
f 109/2/2 110/2/2 113/2/2
f 111/2/2 112/2/2 115/2/2
f 115/2/2 112/2/2 116/2/2
f 109/2/2 113/2/2 117/2/2
f 117/2/2 113/2/2 118/2/2
f 114/2/2 115/2/2 120/2/2
f 120/2/2 115/2/2 121/2/2
f 118/2/2 119/2/2 122/2/2
f 122/2/2 119/2/2 123/2/2
f 124/2/2 125/2/2 126/2/2
f 126/2/2 125/2/2 127/2/2
f 128/2/2 129/2/2 130/2/2
f 130/2/2 129/2/2 131/2/2
f 132/2/2 133/2/2 134/2/2
f 134/2/2 133/2/2 135/2/2
f 135/2/2 133/2/2 136/2/2
f 137/1/2 138/1/2 141/1/2
f 141/1/2 138/1/2 142/1/2
f 143/2/2 144/2/2 145/2/2
f 143/2/2 145/2/2 147/2/2
f 145/1/2 146/1/2 148/1/2
f 147/2/2 145/2/2 148/2/2
f 148/1/2 146/1/2 149/1/2
f 139/1/2 140/1/2 150/1/2
f 150/1/2 140/1/2 151/1/2
f 148/2/2 149/2/2 152/2/2
f 152/2/2 149/2/2 153/2/2
f 150/2/2 151/2/2 154/2/2
f 154/2/2 151/2/2 155/2/2
f 156/1/2 157/1/2 159/1/2
f 158/2/2 159/2/2 160/2/2
f 159/1/2 157/1/2 161/1/2
f 160/2/2 159/2/2 161/2/2
f 161/1/2 157/1/2 162/1/2
f 162/1/2 157/1/2 163/1/2
f 162/2/2 163/2/2 164/2/2
f 164/2/2 163/2/2 165/2/2
f 168/2/3 167/2/3 166/2/3
f 169/2/3 167/2/3 168/2/3
f 170/2/3 167/2/3 169/2/3
f 171/2/3 167/2/3 170/2/3
f 172/2/3 170/2/3 169/2/3
f 173/2/3 170/2/3 172/2/3
f 176/2/3 175/2/3 174/2/3
f 178/2/3 176/2/3 174/2/3
f 178/2/3 177/2/3 176/2/3
f 179/2/3 177/2/3 178/2/3
f 184/1/3 181/1/3 180/1/3
f 187/2/3 183/2/3 182/2/3
f 188/2/3 185/2/3 184/2/3
f 188/1/3 184/1/3 180/1/3
f 189/2/3 185/2/3 188/2/3
f 190/2/3 187/2/3 186/2/3
f 191/2/3 187/2/3 190/2/3
f 192/1/3 189/1/3 188/1/3
f 192/1/3 188/1/3 180/1/3
f 192/1/3 191/1/3 190/1/3
f 192/1/3 190/1/3 189/1/3
f 193/1/3 191/1/3 192/1/3
f 194/1/3 191/1/3 193/1/3
f 195/2/3 187/2/3 191/2/3
f 195/1/3 191/1/3 194/1/3
f 196/1/3 192/1/3 180/1/3
f 197/1/3 192/1/3 196/1/3
f 198/1/3 192/1/3 197/1/3
f 200/2/3 187/2/3 195/2/3
f 201/2/3 183/2/3 187/2/3
f 201/2/3 187/2/3 200/2/3
f 202/2/3 199/2/3 198/2/3
f 202/2/3 198/2/3 197/2/3
f 203/2/3 199/2/3 202/2/3
f 207/1/3 205/1/3 204/1/3
f 208/1/3 205/1/3 207/1/3
f 209/2/3 206/2/3 205/2/3
f 209/1/3 205/1/3 208/1/3
f 210/2/3 206/2/3 209/2/3
f 216/1/3 212/1/3 211/1/3
f 217/1/3 212/1/3 216/1/3
f 218/1/3 214/1/3 213/1/3
f 219/2/3 215/2/3 214/2/3
f 219/1/3 214/1/3 218/1/3
f 220/2/3 215/2/3 219/2/3
f 225/2/3 222/2/3 221/2/3
f 226/2/3 222/2/3 225/2/3
f 227/2/3 224/2/3 223/2/3
f 227/2/3 225/2/3 224/2/3
f 228/2/3 225/2/3 227/2/3
f 229/2/3 227/2/3 223/2/3
f 230/2/3 227/2/3 229/2/3
f 233/2/3 232/2/3 231/2/3
f 234/2/3 232/2/3 233/2/3
f 236/2/3 235/2/3 234/2/3
f 237/2/3 235/2/3 236/2/3
f 242/2/3 239/2/3 238/2/3
f 243/2/3 239/2/3 242/2/3
f 245/1/3 241/1/3 240/1/3
f 246/2/3 242/2/3 241/2/3
f 246/1/3 245/1/3 244/1/3
f 246/1/3 241/1/3 245/1/3
f 247/2/3 242/2/3 246/2/3
f 249/1/3 246/1/3 244/1/3
f 250/1/3 246/1/3 249/1/3
f 251/2/3 248/2/3 247/2/3
f 252/2/3 248/2/3 251/2/3
f 255/2/3 254/2/3 253/2/3
f 256/2/3 254/2/3 255/2/3
f 257/2/4 258/2/4 259/2/4
f 259/2/4 258/2/4 260/2/4
f 261/1/4 262/1/4 265/1/4
f 263/2/4 264/2/4 266/2/4
f 266/2/4 264/2/4 267/2/4
f 261/1/4 265/1/4 268/1/4
f 265/2/4 266/2/4 268/2/4
f 268/2/4 266/2/4 269/2/4
f 261/1/4 268/1/4 271/1/4
f 271/1/4 268/1/4 272/1/4
f 269/2/4 270/2/4 273/2/4
f 273/2/4 270/2/4 274/2/4
f 275/2/4 276/2/4 278/2/4
f 278/2/4 276/2/4 279/2/4
f 277/2/4 278/2/4 280/2/4
f 280/2/4 278/2/4 281/2/4
f 282/2/4 283/2/4 284/2/4
f 284/2/4 283/2/4 285/2/4
f 285/2/4 286/2/4 287/2/4
f 287/2/4 286/2/4 288/2/4
f 289/1/4 290/1/4 292/1/4
f 290/2/4 291/2/4 293/2/4
f 292/1/4 290/1/4 293/1/4
f 293/2/4 291/2/4 294/2/4
f 295/1/4 296/1/4 298/1/4
f 296/2/4 297/2/4 299/2/4
f 298/1/4 296/1/4 299/1/4
f 299/2/4 297/2/4 300/2/4
f 302/2/4 303/2/4 304/2/4
f 304/2/4 303/2/4 305/2/4
f 301/1/4 302/1/4 306/1/4
f 302/2/4 304/2/4 306/2/4
f 306/2/4 304/2/4 307/2/4
f 301/1/4 306/1/4 309/1/4
f 309/1/4 306/1/4 310/1/4
f 307/2/4 308/2/4 311/2/4
f 311/2/4 308/2/4 312/2/4
f 301/1/4 309/1/4 313/1/4
f 301/1/4 313/1/4 316/1/4
f 313/1/4 314/1/4 316/1/4
f 314/2/4 315/2/4 317/2/4
f 316/1/4 314/1/4 317/1/4
f 317/2/4 315/2/4 318/2/4
f 319/2/4 320/2/4 322/2/4
f 322/2/4 320/2/4 323/2/4
f 321/2/4 322/2/4 325/2/4
f 325/2/4 322/2/4 326/2/4
f 324/2/4 325/2/4 328/2/4
f 326/2/4 327/2/4 328/2/4
f 325/2/4 326/2/4 328/2/4
f 328/2/4 327/2/4 329/2/4
f 333/1/5 331/1/5 330/1/5
f 334/1/5 331/1/5 333/1/5
f 336/1/5 333/1/5 332/1/5
f 336/1/5 335/1/5 334/1/5
f 336/1/5 334/1/5 333/1/5
f 337/1/5 335/1/5 336/1/5
f 338/1/5 336/1/5 332/1/5
f 340/1/5 338/1/5 332/1/5
f 340/2/5 339/2/5 338/2/5
f 341/2/5 339/2/5 340/2/5
f 342/1/5 335/1/5 337/1/5
f 343/1/5 341/1/5 340/1/5
f 343/1/5 342/1/5 341/1/5
f 343/1/5 340/1/5 332/1/5
f 344/1/5 342/1/5 343/1/5
f 345/1/5 335/1/5 342/1/5
f 345/1/5 342/1/5 344/1/5
f 346/1/5 335/1/5 345/1/5
f 347/1/5 345/1/5 344/1/5
f 348/1/5 345/1/5 347/1/5
f 351/2/5 350/2/5 349/2/5
f 352/2/5 350/2/5 351/2/5
f 357/2/5 354/2/5 353/2/5
f 358/2/5 354/2/5 357/2/5
f 359/2/5 356/2/5 355/2/5
f 360/2/5 356/2/5 359/2/5
f 363/2/5 362/2/5 361/2/5
f 364/2/5 362/2/5 363/2/5
f 367/2/5 366/2/5 365/2/5
f 368/2/5 366/2/5 367/2/5
f 373/2/5 370/2/5 369/2/5
f 374/2/5 370/2/5 373/2/5
f 375/2/5 372/2/5 371/2/5
f 376/2/5 372/2/5 375/2/5
f 379/2/5 378/2/5 377/2/5
f 380/2/5 378/2/5 379/2/5
f 383/2/5 382/2/5 381/2/5
f 384/2/5 382/2/5 383/2/5
f 387/2/5 386/2/5 385/2/5
f 388/2/5 386/2/5 387/2/5
f 389/2/6 390/2/6 391/2/6
f 391/2/6 390/2/6 392/2/6
f 393/2/6 394/2/6 395/2/6
f 395/2/6 394/2/6 396/2/6
f 397/2/6 398/2/6 399/2/6
f 399/2/6 398/2/6 400/2/6
f 401/2/6 402/2/6 403/2/6
f 403/2/6 402/2/6 404/2/6
f 405/2/6 406/2/6 407/2/6
f 407/2/6 406/2/6 408/2/6
f 409/2/6 410/2/6 412/2/6
f 412/2/6 410/2/6 413/2/6
f 411/2/6 412/2/6 416/2/6
f 416/2/6 412/2/6 417/2/6
f 413/2/6 414/2/6 418/2/6
f 418/2/6 414/2/6 419/2/6
f 415/2/6 416/2/6 421/2/6
f 421/2/6 416/2/6 422/2/6
f 419/2/6 420/2/6 425/2/6
f 425/2/6 420/2/6 426/2/6
f 422/2/6 423/2/6 427/2/6
f 427/2/6 423/2/6 428/2/6
f 424/2/6 425/2/6 429/2/6
f 429/2/6 425/2/6 430/2/6
f 428/2/6 429/2/6 431/2/6
f 431/2/6 429/2/6 432/2/6
f 433/2/6 434/2/6 435/2/6
f 435/2/6 434/2/6 436/2/6
f 437/2/6 438/2/6 439/2/6
f 439/2/6 438/2/6 440/2/6
f 441/2/6 442/2/6 444/2/6
f 444/2/6 442/2/6 445/2/6
f 443/2/6 444/2/6 447/2/6
f 445/2/6 446/2/6 447/2/6
f 444/2/6 445/2/6 447/2/6
f 447/2/6 446/2/6 448/2/6
f 443/2/6 447/2/6 449/2/6
f 449/2/6 447/2/6 450/2/6
f 448/2/6 446/2/6 451/2/6
f 451/2/6 446/2/6 452/2/6
f 443/2/6 449/2/6 453/2/6
f 453/2/6 449/2/6 454/2/6
f 452/2/6 446/2/6 455/2/6
f 455/2/6 446/2/6 456/2/6
f 443/2/6 453/2/6 457/2/6
f 456/2/6 446/2/6 460/2/6
f 457/2/6 458/2/6 461/2/6
f 459/2/6 460/2/6 464/2/6
f 461/2/6 462/2/6 465/2/6
f 463/2/6 464/2/6 466/2/6
f 461/2/6 465/2/6 467/2/6
f 465/2/6 466/2/6 467/2/6
f 443/2/6 457/2/6 467/2/6
f 457/2/6 461/2/6 467/2/6
f 467/2/6 466/2/6 468/2/6
f 466/2/6 464/2/6 469/2/6
f 468/2/6 466/2/6 469/2/6
f 460/2/6 446/2/6 469/2/6
f 464/2/6 460/2/6 469/2/6
f 469/2/6 446/2/6 470/2/6
f 468/2/6 469/2/6 471/2/6
f 471/2/6 469/2/6 472/2/6
f 472/2/6 469/2/6 473/2/6
f 473/2/6 469/2/6 474/2/6
f 474/2/6 469/2/6 475/2/6
f 475/2/6 469/2/6 476/2/6
f 472/2/6 473/2/6 477/2/6
f 477/2/6 473/2/6 478/2/6
f 474/2/6 475/2/6 479/2/6
f 479/2/6 475/2/6 480/2/6
