# MagicaVoxel @ Ephtracy

# group
o 

# material
mtllib Pie.mtl
usemtl palette

# normals
vn -1 0 0
vn 1 0 0
vn 0 0 1
vn 0 0 -1
vn 0 -1 0
vn 0 1 0

# texcoords
vt 0.0371094 0.5
vt 0.841797 0.5
vt 0.923828 0.5
vt 0.994141 0.5

# verts
v -1.6 0.5 1.3
v -1.6 0.5 -1.1
v -1.6 0.7 1.3
v -1.6 0.7 -1.1
v -1.5 0.2 1.2
v -1.5 0.2 -1.2
v -1.5 0.5 1.2
v -1.5 0.5 -1.1
v -1.5 0.7 -1.1
v -1.5 0.7 -1.2
v -1.4 0.2 1.3
v -1.4 0.2 1.2
v -1.4 0.2 -1.2
v -1.4 0.2 -1.3
v -1.4 0.5 1.3
v -1.4 0.5 1.2
v -1.4 0.6 -1.2
v -1.4 0.6 -1.3
v -1.3 0 1.3
v -1.3 0 -1.2
v -1.3 0.2 1.4
v -1.3 0.2 1.3
v -1.3 0.2 -1.2
v -1.3 0.6 -1.2
v -1.3 0.6 -1.3
v -1.3 0.7 1.4
v -1.3 0.7 1.3
v -1.3 0.7 -1.2
v -1.3 0.7 -1.3
v -1.3 1 1.3
v -1.3 1 -1.2
v -1.2 1 1.2
v -1.2 1 -1.1
v -1.2 1.1 1.2
v -1.2 1.1 -1.1
v 1.2 1 1.2
v 1.2 1 -1.1
v 1.2 1.1 1.2
v 1.2 1.1 -1.1
v 1.3 0.2 1.4
v 1.3 0.2 1.3
v 1.3 0.6 -1.2
v 1.3 0.6 -1.3
v 1.3 0.7 1.4
v 1.3 0.7 1.3
v 1.3 0.7 -1.2
v 1.3 0.7 -1.3
v 1.3 1 1.3
v 1.3 1 -1.2
v 1.4 0 1.3
v 1.4 0 -1.2
v 1.4 0.2 1.2
v 1.4 0.2 -1.2
v 1.4 0.2 -1.3
v 1.4 0.5 1.3
v 1.4 0.5 1.2
v 1.4 0.6 -1.2
v 1.4 0.6 -1.3
v 1.5 0.2 1.2
v 1.5 0.2 -1.2
v 1.5 0.5 1.2
v 1.5 0.5 -1.1
v 1.5 0.7 -1.1
v 1.5 0.7 -1.2
v 1.6 0.5 1.3
v 1.6 0.5 -1.1
v 1.6 0.7 1.3
v 1.6 0.7 -1.1
v -1.3 0.2 1.4
v -1.3 0.7 1.4
v 1.3 0.2 1.4
v 1.3 0.7 1.4
v -1.6 0.5 1.3
v -1.6 0.7 1.3
v -1.4 0.2 1.3
v -1.4 0.5 1.3
v -1.3 0 1.3
v -1.3 0.2 1.3
v -1.3 0.7 1.3
v -1.3 1 1.3
v 1.3 0.2 1.3
v 1.3 0.7 1.3
v 1.3 1 1.3
v 1.4 0 1.3
v 1.4 0.5 1.3
v 1.6 0.5 1.3
v 1.6 0.7 1.3
v -1.5 0.2 1.2
v -1.5 0.5 1.2
v -1.4 0.2 1.2
v -1.4 0.5 1.2
v -1.2 1 1.2
v -1.2 1.1 1.2
v -0.1 1 1.2
v -0.1 1.1 1.2
v 0.1 1 1.2
v 0.1 1.1 1.2
v 1.2 1 1.2
v 1.2 1.1 1.2
v 1.4 0.2 1.2
v 1.4 0.5 1.2
v 1.5 0.2 1.2
v 1.5 0.5 1.2
v -1.6 0.5 -1.1
v -1.6 0.7 -1.1
v -1.5 0.5 -1.1
v -1.5 0.7 -1.1
v -1.2 1 -1.1
v -1.2 1.1 -1.1
v -0.1 1 -1.1
v -0.1 1.1 -1.1
v 0.1 1 -1.1
v 0.1 1.1 -1.1
v 1.2 1 -1.1
v 1.2 1.1 -1.1
v 1.5 0.5 -1.1
v 1.5 0.7 -1.1
v 1.6 0.5 -1.1
v 1.6 0.7 -1.1
v -1.5 0.2 -1.2
v -1.5 0.7 -1.2
v -1.4 0.2 -1.2
v -1.4 0.6 -1.2
v -1.3 0 -1.2
v -1.3 0.2 -1.2
v -1.3 0.6 -1.2
v -1.3 0.7 -1.2
v -1.3 1 -1.2
v 1.3 0.6 -1.2
v 1.3 0.7 -1.2
v 1.3 1 -1.2
v 1.4 0 -1.2
v 1.4 0.2 -1.2
v 1.4 0.6 -1.2
v 1.5 0.2 -1.2
v 1.5 0.7 -1.2
v -1.4 0.2 -1.3
v -1.4 0.6 -1.3
v -1.3 0.6 -1.3
v -1.3 0.7 -1.3
v 1.3 0.6 -1.3
v 1.3 0.7 -1.3
v 1.4 0.2 -1.3
v 1.4 0.6 -1.3
v -1.3 0 1.3
v 1.4 0 1.3
v -1.3 0 -1.2
v 1.4 0 -1.2
v -1.3 0.2 1.4
v 1.3 0.2 1.4
v -1.4 0.2 1.3
v -1.3 0.2 1.3
v 1.3 0.2 1.3
v -1.5 0.2 1.2
v -1.4 0.2 1.2
v 1.4 0.2 1.2
v 1.5 0.2 1.2
v -1.5 0.2 -1.2
v -1.4 0.2 -1.2
v -1.3 0.2 -1.2
v 1.4 0.2 -1.2
v 1.5 0.2 -1.2
v -1.4 0.2 -1.3
v 1.4 0.2 -1.3
v -1.6 0.5 1.3
v -1.4 0.5 1.3
v 1.4 0.5 1.3
v 1.6 0.5 1.3
v -1.5 0.5 1.2
v -1.4 0.5 1.2
v 1.4 0.5 1.2
v 1.5 0.5 1.2
v -1.6 0.5 -1.1
v -1.5 0.5 -1.1
v 1.5 0.5 -1.1
v 1.6 0.5 -1.1
v -1.4 0.6 -1.2
v -1.3 0.6 -1.2
v 1.3 0.6 -1.2
v 1.4 0.6 -1.2
v -1.4 0.6 -1.3
v -1.3 0.6 -1.3
v 1.3 0.6 -1.3
v 1.4 0.6 -1.3
v -1.3 0.7 1.4
v 1.3 0.7 1.4
v -1.6 0.7 1.3
v -1.3 0.7 1.3
v 1.3 0.7 1.3
v 1.6 0.7 1.3
v -1.6 0.7 -1.1
v -1.5 0.7 -1.1
v 1.5 0.7 -1.1
v 1.6 0.7 -1.1
v -1.5 0.7 -1.2
v -1.3 0.7 -1.2
v 1.3 0.7 -1.2
v 1.5 0.7 -1.2
v -1.3 0.7 -1.3
v 1.3 0.7 -1.3
v -1.3 1 1.3
v 1.3 1 1.3
v -1.2 1 1.2
v -0.1 1 1.2
v 0.1 1 1.2
v 1.2 1 1.2
v -1.2 1 -1.1
v -0.1 1 -1.1
v 0.1 1 -1.1
v 1.2 1 -1.1
v -1.3 1 -1.2
v 1.3 1 -1.2
v -1.2 1.1 1.2
v -0.1 1.1 1.2
v 0.1 1.1 1.2
v 1.2 1.1 1.2
v -0.1 1.1 1.1
v 0.1 1.1 1.1
v -0.1 1.1 0.9
v 0.1 1.1 0.9
v -0.1 1.1 0.8
v 0.1 1.1 0.8
v -0.3 1.1 0.7
v -0.2 1.1 0.7
v 0.2 1.1 0.7
v 0.3 1.1 0.7
v -0.6 1.1 0.6
v -0.5 1.1 0.6
v -0.3 1.1 0.6
v -0.2 1.1 0.6
v 0.2 1.1 0.6
v 0.3 1.1 0.6
v 0.5 1.1 0.6
v 0.6 1.1 0.6
v -0.6 1.1 0.5
v -0.5 1.1 0.5
v 0.5 1.1 0.5
v 0.6 1.1 0.5
v -0.7 1.1 0.4
v -0.6 1.1 0.4
v -0.3 1.1 0.4
v -0.2 1.1 0.4
v 0.2 1.1 0.4
v 0.3 1.1 0.4
v 0.6 1.1 0.4
v 0.7 1.1 0.4
v -0.7 1.1 0.3
v -0.6 1.1 0.3
v -0.3 1.1 0.3
v -0.2 1.1 0.3
v -0.1 1.1 0.3
v 0.1 1.1 0.3
v 0.2 1.1 0.3
v 0.3 1.1 0.3
v 0.6 1.1 0.3
v 0.7 1.1 0.3
v -0.1 1.1 0.2
v 0.1 1.1 0.2
v -1.1 1.1 0.1
v -1 1.1 0.1
v -0.9 1.1 0.1
v -0.8 1.1 0.1
v -0.7 1.1 0.1
v -0.6 1.1 0.1
v -0.3 1.1 0.1
v -0.2 1.1 0.1
v -0.1 1.1 0.1
v 0.1 1.1 0.1
v 0.2 1.1 0.1
v 0.3 1.1 0.1
v 0.6 1.1 0.1
v 0.7 1.1 0.1
v 0.8 1.1 0.1
v 0.9 1.1 0.1
v 1 1.1 0.1
v 1.1 1.1 0.1
v -1.1 1.1 0
v -1 1.1 0
v -0.9 1.1 0
v -0.8 1.1 0
v -0.7 1.1 0
v -0.6 1.1 0
v -0.3 1.1 0
v -0.2 1.1 0
v -0.1 1.1 0
v 0.1 1.1 0
v 0.2 1.1 0
v 0.3 1.1 0
v 0.6 1.1 0
v 0.7 1.1 0
v 0.8 1.1 0
v 0.9 1.1 0
v 1 1.1 0
v 1.1 1.1 0
v -0.4 1.1 -0.1
v -0.3 1.1 -0.1
v -0.1 1.1 -0.1
v 0.1 1.1 -0.1
v 0.3 1.1 -0.1
v 0.4 1.1 -0.1
v -0.7 1.1 -0.2
v -0.6 1.1 -0.2
v -0.4 1.1 -0.2
v -0.3 1.1 -0.2
v -0.1 1.1 -0.2
v 0.1 1.1 -0.2
v 0.3 1.1 -0.2
v 0.4 1.1 -0.2
v 0.6 1.1 -0.2
v 0.7 1.1 -0.2
v -0.7 1.1 -0.3
v -0.6 1.1 -0.3
v 0.6 1.1 -0.3
v 0.7 1.1 -0.3
v -0.5 1.1 -0.4
v -0.4 1.1 -0.4
v 0.4 1.1 -0.4
v 0.5 1.1 -0.4
v -0.5 1.1 -0.5
v -0.4 1.1 -0.5
v -0.2 1.1 -0.5
v -0.1 1.1 -0.5
v 0.1 1.1 -0.5
v 0.2 1.1 -0.5
v 0.4 1.1 -0.5
v 0.5 1.1 -0.5
v -0.2 1.1 -0.6
v -0.1 1.1 -0.6
v 0.1 1.1 -0.6
v 0.2 1.1 -0.6
v -0.1 1.1 -0.7
v 0.1 1.1 -0.7
v -0.1 1.1 -0.8
v 0.1 1.1 -0.8
v -0.1 1.1 -1
v 0.1 1.1 -1
v -1.2 1.1 -1.1
v -0.1 1.1 -1.1
v 0.1 1.1 -1.1
v 1.2 1.1 -1.1

# faces
f 3/4/1 2/4/1 1/4/1
f 4/4/1 2/4/1 3/4/1
f 7/4/1 6/4/1 5/4/1
f 8/4/1 6/4/1 7/4/1
f 9/4/1 6/4/1 8/4/1
f 10/4/1 6/4/1 9/4/1
f 15/4/1 12/4/1 11/4/1
f 16/4/1 12/4/1 15/4/1
f 17/4/1 14/4/1 13/4/1
f 18/4/1 14/4/1 17/4/1
f 22/4/1 20/4/1 19/4/1
f 23/4/1 20/4/1 22/4/1
f 26/4/1 22/4/1 21/4/1
f 27/4/1 22/4/1 26/4/1
f 28/4/1 25/4/1 24/4/1
f 29/4/1 25/4/1 28/4/1
f 30/1/1 28/1/1 27/1/1
f 31/1/1 28/1/1 30/1/1
f 34/1/1 33/1/1 32/1/1
f 35/1/1 33/1/1 34/1/1
f 36/1/2 37/1/2 38/1/2
f 38/1/2 37/1/2 39/1/2
f 40/4/2 41/4/2 44/4/2
f 44/4/2 41/4/2 45/4/2
f 42/4/2 43/4/2 46/4/2
f 46/4/2 43/4/2 47/4/2
f 45/1/2 46/1/2 48/1/2
f 48/1/2 46/1/2 49/1/2
f 50/4/2 51/4/2 52/4/2
f 52/4/2 51/4/2 53/4/2
f 50/4/2 52/4/2 55/4/2
f 55/4/2 52/4/2 56/4/2
f 53/4/2 54/4/2 57/4/2
f 57/4/2 54/4/2 58/4/2
f 59/4/2 60/4/2 61/4/2
f 61/4/2 60/4/2 62/4/2
f 62/4/2 60/4/2 63/4/2
f 63/4/2 60/4/2 64/4/2
f 65/4/2 66/4/2 67/4/2
f 67/4/2 66/4/2 68/4/2
f 71/4/3 70/4/3 69/4/3
f 72/4/3 70/4/3 71/4/3
f 76/4/3 74/4/3 73/4/3
f 78/4/3 76/4/3 75/4/3
f 79/4/3 74/4/3 76/4/3
f 79/4/3 76/4/3 78/4/3
f 81/4/3 78/4/3 77/4/3
f 82/1/3 80/1/3 79/1/3
f 83/1/3 80/1/3 82/1/3
f 84/4/3 81/4/3 77/4/3
f 84/4/3 82/4/3 81/4/3
f 85/4/3 82/4/3 84/4/3
f 86/4/3 82/4/3 85/4/3
f 87/4/3 82/4/3 86/4/3
f 90/4/3 89/4/3 88/4/3
f 91/4/3 89/4/3 90/4/3
f 94/1/3 93/1/3 92/1/3
f 95/1/3 93/1/3 94/1/3
f 96/3/3 95/3/3 94/3/3
f 97/3/3 95/3/3 96/3/3
f 98/1/3 97/1/3 96/1/3
f 99/1/3 97/1/3 98/1/3
f 102/4/3 101/4/3 100/4/3
f 103/4/3 101/4/3 102/4/3
f 104/4/4 105/4/4 106/4/4
f 106/4/4 105/4/4 107/4/4
f 108/1/4 109/1/4 110/1/4
f 110/1/4 109/1/4 111/1/4
f 110/3/4 111/3/4 112/3/4
f 112/3/4 111/3/4 113/3/4
f 112/1/4 113/1/4 114/1/4
f 114/1/4 113/1/4 115/1/4
f 116/4/4 117/4/4 118/4/4
f 118/4/4 117/4/4 119/4/4
f 120/4/4 121/4/4 122/4/4
f 122/4/4 121/4/4 123/4/4
f 123/4/4 121/4/4 126/4/4
f 126/4/4 121/4/4 127/4/4
f 127/1/4 128/1/4 130/1/4
f 130/1/4 128/1/4 131/1/4
f 124/4/4 125/4/4 132/4/4
f 132/4/4 125/4/4 133/4/4
f 129/4/4 130/4/4 134/4/4
f 133/4/4 134/4/4 135/4/4
f 134/4/4 130/4/4 136/4/4
f 135/4/4 134/4/4 136/4/4
f 137/4/4 138/4/4 139/4/4
f 137/4/4 139/4/4 141/4/4
f 139/4/4 140/4/4 141/4/4
f 141/4/4 140/4/4 142/4/4
f 137/4/4 141/4/4 143/4/4
f 143/4/4 141/4/4 144/4/4
f 147/4/5 146/4/5 145/4/5
f 148/4/5 146/4/5 147/4/5
f 152/4/5 150/4/5 149/4/5
f 153/4/5 150/4/5 152/4/5
f 155/4/5 152/4/5 151/4/5
f 158/4/5 155/4/5 154/4/5
f 159/4/5 152/4/5 155/4/5
f 159/4/5 155/4/5 158/4/5
f 160/4/5 152/4/5 159/4/5
f 161/4/5 157/4/5 156/4/5
f 162/4/5 157/4/5 161/4/5
f 163/4/5 160/4/5 159/4/5
f 163/4/5 161/4/5 160/4/5
f 164/4/5 161/4/5 163/4/5
f 169/4/5 166/4/5 165/4/5
f 170/4/5 166/4/5 169/4/5
f 171/4/5 168/4/5 167/4/5
f 172/4/5 168/4/5 171/4/5
f 173/4/5 169/4/5 165/4/5
f 174/4/5 169/4/5 173/4/5
f 175/4/5 168/4/5 172/4/5
f 176/4/5 168/4/5 175/4/5
f 177/4/6 178/4/6 181/4/6
f 181/4/6 178/4/6 182/4/6
f 179/4/6 180/4/6 183/4/6
f 183/4/6 180/4/6 184/4/6
f 185/4/6 186/4/6 188/4/6
f 188/4/6 186/4/6 189/4/6
f 187/4/6 188/4/6 191/4/6
f 191/4/6 188/4/6 192/4/6
f 189/4/6 190/4/6 193/4/6
f 193/4/6 190/4/6 194/4/6
f 192/4/6 188/4/6 195/4/6
f 195/4/6 188/4/6 196/4/6
f 189/4/6 193/4/6 197/4/6
f 197/4/6 193/4/6 198/4/6
f 196/4/6 197/4/6 199/4/6
f 199/4/6 197/4/6 200/4/6
f 201/1/6 202/1/6 203/1/6
f 203/1/6 202/1/6 204/1/6
f 204/1/6 202/1/6 205/1/6
f 205/1/6 202/1/6 206/1/6
f 201/1/6 203/1/6 207/1/6
f 206/1/6 202/1/6 210/1/6
f 208/1/6 209/1/6 211/1/6
f 209/1/6 210/1/6 211/1/6
f 201/1/6 207/1/6 211/1/6
f 207/1/6 208/1/6 211/1/6
f 210/1/6 202/1/6 212/1/6
f 211/1/6 210/1/6 212/1/6
f 213/1/6 214/1/6 217/1/6
f 214/3/6 215/3/6 217/3/6
f 215/1/6 216/1/6 218/1/6
f 217/3/6 215/3/6 218/3/6
f 213/1/6 217/1/6 219/1/6
f 217/1/6 218/1/6 219/1/6
f 218/1/6 216/1/6 220/1/6
f 219/1/6 218/1/6 220/1/6
f 213/1/6 219/1/6 221/1/6
f 219/3/6 220/3/6 221/3/6
f 220/1/6 216/1/6 222/1/6
f 221/3/6 220/3/6 222/3/6
f 213/1/6 221/1/6 223/1/6
f 221/1/6 222/1/6 223/1/6
f 223/1/6 222/1/6 224/1/6
f 222/1/6 216/1/6 225/1/6
f 224/1/6 222/1/6 225/1/6
f 225/1/6 216/1/6 226/1/6
f 213/1/6 223/1/6 227/1/6
f 227/1/6 223/1/6 228/1/6
f 223/3/6 224/3/6 229/3/6
f 228/1/6 223/1/6 229/1/6
f 224/1/6 225/1/6 230/1/6
f 229/3/6 224/3/6 230/3/6
f 225/3/6 226/3/6 231/3/6
f 230/1/6 225/1/6 231/1/6
f 226/1/6 216/1/6 232/1/6
f 231/3/6 226/3/6 232/3/6
f 232/1/6 216/1/6 233/1/6
f 233/1/6 216/1/6 234/1/6
f 227/3/6 228/3/6 235/3/6
f 213/1/6 227/1/6 235/1/6
f 230/1/6 231/1/6 236/1/6
f 235/3/6 228/3/6 236/3/6
f 228/1/6 229/1/6 236/1/6
f 232/1/6 233/1/6 236/1/6
f 231/1/6 232/1/6 236/1/6
f 229/1/6 230/1/6 236/1/6
f 233/3/6 234/3/6 237/3/6
f 236/1/6 233/1/6 237/1/6
f 234/1/6 216/1/6 238/1/6
f 237/3/6 234/3/6 238/3/6
f 236/1/6 237/1/6 239/1/6
f 213/1/6 235/1/6 239/1/6
f 237/1/6 238/1/6 239/1/6
f 235/1/6 236/1/6 239/1/6
f 239/1/6 238/1/6 240/1/6
f 240/1/6 238/1/6 241/1/6
f 241/1/6 238/1/6 242/1/6
f 242/1/6 238/1/6 243/1/6
f 243/1/6 238/1/6 244/1/6
f 238/1/6 216/1/6 245/1/6
f 244/1/6 238/1/6 245/1/6
f 245/1/6 216/1/6 246/1/6
f 213/1/6 239/1/6 247/1/6
f 239/3/6 240/3/6 247/3/6
f 240/1/6 241/1/6 248/1/6
f 247/3/6 240/3/6 248/3/6
f 241/2/6 242/2/6 249/2/6
f 248/1/6 241/1/6 249/1/6
f 242/1/6 243/1/6 250/1/6
f 249/2/6 242/2/6 250/2/6
f 250/1/6 243/1/6 251/1/6
f 251/1/6 243/1/6 252/1/6
f 243/2/6 244/2/6 253/2/6
f 252/1/6 243/1/6 253/1/6
f 244/1/6 245/1/6 254/1/6
f 253/2/6 244/2/6 254/2/6
f 245/3/6 246/3/6 255/3/6
f 254/1/6 245/1/6 255/1/6
f 246/1/6 216/1/6 256/1/6
f 255/3/6 246/3/6 256/3/6
f 251/2/6 252/2/6 257/2/6
f 247/1/6 248/1/6 257/1/6
f 248/1/6 249/1/6 257/1/6
f 250/1/6 251/1/6 257/1/6
f 249/1/6 250/1/6 257/1/6
f 254/1/6 255/1/6 258/1/6
f 257/2/6 252/2/6 258/2/6
f 253/1/6 254/1/6 258/1/6
f 252/1/6 253/1/6 258/1/6
f 255/1/6 256/1/6 258/1/6
f 247/1/6 257/1/6 259/1/6
f 213/1/6 247/1/6 259/1/6
f 257/1/6 258/1/6 259/1/6
f 259/1/6 258/1/6 260/1/6
f 260/1/6 258/1/6 261/1/6
f 261/1/6 258/1/6 262/1/6
f 262/1/6 258/1/6 263/1/6
f 263/1/6 258/1/6 264/1/6
f 264/1/6 258/1/6 265/1/6
f 265/1/6 258/1/6 266/1/6
f 266/1/6 258/1/6 267/1/6
f 258/1/6 256/1/6 268/1/6
f 267/1/6 258/1/6 268/1/6
f 268/1/6 256/1/6 269/1/6
f 269/1/6 256/1/6 270/1/6
f 270/1/6 256/1/6 271/1/6
f 256/1/6 216/1/6 272/1/6
f 271/1/6 256/1/6 272/1/6
f 272/1/6 216/1/6 273/1/6
f 273/1/6 216/1/6 274/1/6
f 274/1/6 216/1/6 275/1/6
f 275/1/6 216/1/6 276/1/6
f 213/1/6 259/1/6 277/1/6
f 259/3/6 260/3/6 277/3/6
f 260/1/6 261/1/6 278/1/6
f 277/3/6 260/3/6 278/3/6
f 261/3/6 262/3/6 279/3/6
f 278/1/6 261/1/6 279/1/6
f 262/1/6 263/1/6 280/1/6
f 279/3/6 262/3/6 280/3/6
f 263/3/6 264/3/6 281/3/6
f 280/1/6 263/1/6 281/1/6
f 264/1/6 265/1/6 282/1/6
f 281/3/6 264/3/6 282/3/6
f 265/2/6 266/2/6 283/2/6
f 282/1/6 265/1/6 283/1/6
f 266/1/6 267/1/6 284/1/6
f 283/2/6 266/2/6 284/2/6
f 267/2/6 268/2/6 285/2/6
f 284/1/6 267/1/6 285/1/6
f 268/1/6 269/1/6 286/1/6
f 285/2/6 268/2/6 286/2/6
f 269/2/6 270/2/6 287/2/6
f 286/1/6 269/1/6 287/1/6
f 270/1/6 271/1/6 288/1/6
f 287/2/6 270/2/6 288/2/6
f 271/3/6 272/3/6 289/3/6
f 288/1/6 271/1/6 289/1/6
f 272/1/6 273/1/6 290/1/6
f 289/3/6 272/3/6 290/3/6
f 273/3/6 274/3/6 291/3/6
f 290/1/6 273/1/6 291/1/6
f 274/1/6 275/1/6 292/1/6
f 291/3/6 274/3/6 292/3/6
f 275/3/6 276/3/6 293/3/6
f 292/1/6 275/1/6 293/1/6
f 276/1/6 216/1/6 294/1/6
f 293/3/6 276/3/6 294/3/6
f 286/1/6 287/1/6 295/1/6
f 282/1/6 283/1/6 295/1/6
f 293/1/6 294/1/6 295/1/6
f 290/1/6 291/1/6 295/1/6
f 289/1/6 290/1/6 295/1/6
f 288/1/6 289/1/6 295/1/6
f 287/1/6 288/1/6 295/1/6
f 285/1/6 286/1/6 295/1/6
f 284/1/6 285/1/6 295/1/6
f 283/1/6 284/1/6 295/1/6
f 281/1/6 282/1/6 295/1/6
f 280/1/6 281/1/6 295/1/6
f 279/1/6 280/1/6 295/1/6
f 278/1/6 279/1/6 295/1/6
f 277/1/6 278/1/6 295/1/6
f 292/1/6 293/1/6 295/1/6
f 291/1/6 292/1/6 295/1/6
f 295/1/6 294/1/6 296/1/6
f 296/1/6 294/1/6 297/1/6
f 297/1/6 294/1/6 298/1/6
f 298/1/6 294/1/6 299/1/6
f 299/1/6 294/1/6 300/1/6
f 277/1/6 295/1/6 301/1/6
f 301/1/6 295/1/6 302/1/6
f 295/2/6 296/2/6 303/2/6
f 302/1/6 295/1/6 303/1/6
f 296/1/6 297/1/6 304/1/6
f 303/2/6 296/2/6 304/2/6
f 297/2/6 298/2/6 305/2/6
f 304/1/6 297/1/6 305/1/6
f 298/1/6 299/1/6 306/1/6
f 305/2/6 298/2/6 306/2/6
f 299/2/6 300/2/6 307/2/6
f 306/1/6 299/1/6 307/1/6
f 300/1/6 294/1/6 308/1/6
f 307/2/6 300/2/6 308/2/6
f 308/1/6 294/1/6 309/1/6
f 309/1/6 294/1/6 310/1/6
f 301/3/6 302/3/6 311/3/6
f 277/1/6 301/1/6 311/1/6
f 306/1/6 307/1/6 312/1/6
f 311/3/6 302/3/6 312/3/6
f 302/1/6 303/1/6 312/1/6
f 308/1/6 309/1/6 312/1/6
f 307/1/6 308/1/6 312/1/6
f 303/1/6 304/1/6 312/1/6
f 305/1/6 306/1/6 312/1/6
f 304/1/6 305/1/6 312/1/6
f 309/3/6 310/3/6 313/3/6
f 312/1/6 309/1/6 313/1/6
f 310/1/6 294/1/6 314/1/6
f 313/3/6 310/3/6 314/3/6
f 312/1/6 313/1/6 315/1/6
f 311/1/6 312/1/6 315/1/6
f 313/1/6 314/1/6 315/1/6
f 315/1/6 314/1/6 316/1/6
f 316/1/6 314/1/6 317/1/6
f 317/1/6 314/1/6 318/1/6
f 311/1/6 315/1/6 319/1/6
f 315/3/6 316/3/6 319/3/6
f 316/1/6 317/1/6 320/1/6
f 319/3/6 316/3/6 320/3/6
f 320/1/6 317/1/6 321/1/6
f 321/1/6 317/1/6 322/1/6
f 322/1/6 317/1/6 323/1/6
f 323/1/6 317/1/6 324/1/6
f 317/3/6 318/3/6 325/3/6
f 324/1/6 317/1/6 325/1/6
f 318/1/6 314/1/6 326/1/6
f 325/3/6 318/3/6 326/3/6
f 319/1/6 320/1/6 327/1/6
f 320/1/6 321/1/6 327/1/6
f 321/3/6 322/3/6 327/3/6
f 322/1/6 323/1/6 328/1/6
f 327/3/6 322/3/6 328/3/6
f 323/3/6 324/3/6 329/3/6
f 328/1/6 323/1/6 329/1/6
f 324/1/6 325/1/6 330/1/6
f 329/3/6 324/3/6 330/3/6
f 325/1/6 326/1/6 330/1/6
f 328/1/6 329/1/6 331/1/6
f 327/1/6 328/1/6 331/1/6
f 329/1/6 330/1/6 331/1/6
f 331/1/6 330/1/6 332/1/6
f 327/1/6 331/1/6 333/1/6
f 331/3/6 332/3/6 333/3/6
f 332/1/6 330/1/6 334/1/6
f 333/3/6 332/3/6 334/3/6
f 327/1/6 333/1/6 335/1/6
f 333/1/6 334/1/6 335/1/6
f 334/1/6 330/1/6 336/1/6
f 335/1/6 334/1/6 336/1/6
f 213/1/6 277/1/6 337/1/6
f 277/1/6 311/1/6 337/1/6
f 319/1/6 327/1/6 337/1/6
f 327/1/6 335/1/6 337/1/6
f 311/1/6 319/1/6 337/1/6
f 335/3/6 336/3/6 338/3/6
f 337/1/6 335/1/6 338/1/6
f 336/1/6 330/1/6 339/1/6
f 338/3/6 336/3/6 339/3/6
f 294/1/6 216/1/6 340/1/6
f 339/1/6 330/1/6 340/1/6
f 314/1/6 294/1/6 340/1/6
f 326/1/6 314/1/6 340/1/6
f 330/1/6 326/1/6 340/1/6
