# MagicaVoxel @ Ephtracy

# group
o 

# material
mtllib Table.mtl
usemtl palette

# normals
vn -1 0 0
vn 1 0 0
vn 0 0 1
vn 0 0 -1
vn 0 -1 0
vn 0 1 0

# texcoords
vt 0.537109 0.5
vt 0.982422 0.5
vt 0.994141 0.5

# verts
v -1.3 0 0.5
v -1.3 0 0.2
v -1.3 0 -1
v -1.3 0 -1.3
v -1.3 0.1 0.5
v -1.3 0.1 0.2
v -1.3 0.1 -1
v -1.3 0.1 -1.3
v -1.3 1.5 0.5
v -1.3 1.5 0.2
v -1.3 1.5 -1
v -1.3 1.5 -1.3
v -1.3 1.9 0.5
v -1.3 1.9 -1.3
v 1 0 0.5
v 1 0 0.2
v 1 0 -1
v 1 0 -1.3
v 1 0.1 0.5
v 1 0.1 0.2
v 1 0.1 -1
v 1 0.1 -1.3
v 1 1.5 0.5
v 1 1.5 0.2
v 1 1.5 -1
v 1 1.5 -1.3
v -1 0 0.5
v -1 0 0.2
v -1 0 -1
v -1 0 -1.3
v -1 0.1 0.5
v -1 0.1 0.2
v -1 0.1 -1
v -1 0.1 -1.3
v -1 1.5 0.5
v -1 1.5 0.2
v -1 1.5 -1
v -1 1.5 -1.3
v 1.3 0 0.5
v 1.3 0 0.2
v 1.3 0 -1
v 1.3 0 -1.3
v 1.3 0.1 0.5
v 1.3 0.1 0.2
v 1.3 0.1 -1
v 1.3 0.1 -1.3
v 1.3 1.5 0.5
v 1.3 1.5 0.2
v 1.3 1.5 -1
v 1.3 1.5 -1.3
v 1.3 1.9 0.5
v 1.3 1.9 -1.3
v -1.3 0 0.5
v -1.3 0.1 0.5
v -1.3 1.5 0.5
v -1.3 1.9 0.5
v -1 0 0.5
v -1 0.1 0.5
v -1 1.5 0.5
v 1 0 0.5
v 1 0.1 0.5
v 1 1.5 0.5
v 1.3 0 0.5
v 1.3 0.1 0.5
v 1.3 1.5 0.5
v 1.3 1.9 0.5
v -1.3 0 -1
v -1.3 0.1 -1
v -1.3 1.5 -1
v -1 0 -1
v -1 0.1 -1
v -1 1.5 -1
v 1 0 -1
v 1 0.1 -1
v 1 1.5 -1
v 1.3 0 -1
v 1.3 0.1 -1
v 1.3 1.5 -1
v -1.3 0 0.2
v -1.3 0.1 0.2
v -1.3 1.5 0.2
v -1 0 0.2
v -1 0.1 0.2
v -1 1.5 0.2
v 1 0 0.2
v 1 0.1 0.2
v 1 1.5 0.2
v 1.3 0 0.2
v 1.3 0.1 0.2
v 1.3 1.5 0.2
v -1.3 0 -1.3
v -1.3 0.1 -1.3
v -1.3 1.5 -1.3
v -1.3 1.9 -1.3
v -1 0 -1.3
v -1 0.1 -1.3
v -1 1.5 -1.3
v 1 0 -1.3
v 1 0.1 -1.3
v 1 1.5 -1.3
v 1.3 0 -1.3
v 1.3 0.1 -1.3
v 1.3 1.5 -1.3
v 1.3 1.9 -1.3
v -1.3 0 0.5
v -1 0 0.5
v 1 0 0.5
v 1.3 0 0.5
v -1.3 0 0.2
v -1 0 0.2
v 1 0 0.2
v 1.3 0 0.2
v -1.3 0 -1
v -1 0 -1
v 1 0 -1
v 1.3 0 -1
v -1.3 0 -1.3
v -1 0 -1.3
v 1 0 -1.3
v 1.3 0 -1.3
v -1 1.5 0.5
v 1 1.5 0.5
v -1.3 1.5 0.2
v -1 1.5 0.2
v 1 1.5 0.2
v 1.3 1.5 0.2
v -1.3 1.5 -1
v -1 1.5 -1
v 1 1.5 -1
v 1.3 1.5 -1
v -1 1.5 -1.3
v 1 1.5 -1.3
v -1.3 1.9 0.5
v 1.3 1.9 0.5
v -0.9 1.9 0.1
v -0.8 1.9 0.1
v 0.8 1.9 0.1
v 0.9 1.9 0.1
v -0.9 1.9 -0.1
v -0.8 1.9 -0.1
v 0.8 1.9 -0.1
v 0.9 1.9 -0.1
v -0.9 1.9 -0.8
v -0.8 1.9 -0.8
v 0.8 1.9 -0.8
v 0.9 1.9 -0.8
v -0.9 1.9 -1
v -0.8 1.9 -1
v 0.8 1.9 -1
v 0.9 1.9 -1
v -1.3 1.9 -1.3
v 1.3 1.9 -1.3

# faces
f 5/3/1 2/3/1 1/3/1
f 6/3/1 2/3/1 5/3/1
f 7/3/1 4/3/1 3/3/1
f 8/3/1 4/3/1 7/3/1
f 9/2/1 6/2/1 5/2/1
f 10/2/1 6/2/1 9/2/1
f 11/2/1 8/2/1 7/2/1
f 12/2/1 8/2/1 11/2/1
f 13/1/1 10/1/1 9/1/1
f 13/1/1 11/1/1 10/1/1
f 13/1/1 12/1/1 11/1/1
f 14/1/1 12/1/1 13/1/1
f 19/3/1 16/3/1 15/3/1
f 20/3/1 16/3/1 19/3/1
f 21/3/1 18/3/1 17/3/1
f 22/3/1 18/3/1 21/3/1
f 23/2/1 20/2/1 19/2/1
f 24/2/1 20/2/1 23/2/1
f 25/2/1 22/2/1 21/2/1
f 26/2/1 22/2/1 25/2/1
f 27/3/2 28/3/2 31/3/2
f 31/3/2 28/3/2 32/3/2
f 29/3/2 30/3/2 33/3/2
f 33/3/2 30/3/2 34/3/2
f 31/2/2 32/2/2 35/2/2
f 35/2/2 32/2/2 36/2/2
f 33/2/2 34/2/2 37/2/2
f 37/2/2 34/2/2 38/2/2
f 39/3/2 40/3/2 43/3/2
f 43/3/2 40/3/2 44/3/2
f 41/3/2 42/3/2 45/3/2
f 45/3/2 42/3/2 46/3/2
f 43/2/2 44/2/2 47/2/2
f 47/2/2 44/2/2 48/2/2
f 45/2/2 46/2/2 49/2/2
f 49/2/2 46/2/2 50/2/2
f 47/1/2 48/1/2 51/1/2
f 48/1/2 49/1/2 51/1/2
f 49/1/2 50/1/2 51/1/2
f 51/1/2 50/1/2 52/1/2
f 57/3/3 54/3/3 53/3/3
f 58/2/3 55/2/3 54/2/3
f 58/3/3 54/3/3 57/3/3
f 59/1/3 56/1/3 55/1/3
f 59/2/3 55/2/3 58/2/3
f 62/1/3 56/1/3 59/1/3
f 63/3/3 61/3/3 60/3/3
f 64/2/3 62/2/3 61/2/3
f 64/3/3 61/3/3 63/3/3
f 65/1/3 56/1/3 62/1/3
f 65/2/3 62/2/3 64/2/3
f 66/1/3 56/1/3 65/1/3
f 70/3/3 68/3/3 67/3/3
f 71/2/3 69/2/3 68/2/3
f 71/3/3 68/3/3 70/3/3
f 72/2/3 69/2/3 71/2/3
f 76/3/3 74/3/3 73/3/3
f 77/2/3 75/2/3 74/2/3
f 77/3/3 74/3/3 76/3/3
f 78/2/3 75/2/3 77/2/3
f 79/3/4 80/3/4 82/3/4
f 80/2/4 81/2/4 83/2/4
f 82/3/4 80/3/4 83/3/4
f 83/2/4 81/2/4 84/2/4
f 85/3/4 86/3/4 88/3/4
f 86/2/4 87/2/4 89/2/4
f 88/3/4 86/3/4 89/3/4
f 89/2/4 87/2/4 90/2/4
f 91/3/4 92/3/4 95/3/4
f 92/2/4 93/2/4 96/2/4
f 95/3/4 92/3/4 96/3/4
f 93/1/4 94/1/4 97/1/4
f 96/2/4 93/2/4 97/2/4
f 97/1/4 94/1/4 100/1/4
f 98/3/4 99/3/4 101/3/4
f 99/2/4 100/2/4 102/2/4
f 101/3/4 99/3/4 102/3/4
f 100/1/4 94/1/4 103/1/4
f 102/2/4 100/2/4 103/2/4
f 103/1/4 94/1/4 104/1/4
f 109/3/5 106/3/5 105/3/5
f 110/3/5 106/3/5 109/3/5
f 111/3/5 108/3/5 107/3/5
f 112/3/5 108/3/5 111/3/5
f 117/3/5 114/3/5 113/3/5
f 118/3/5 114/3/5 117/3/5
f 119/3/5 116/3/5 115/3/5
f 120/3/5 116/3/5 119/3/5
f 124/1/5 122/1/5 121/1/5
f 125/1/5 122/1/5 124/1/5
f 127/1/5 124/1/5 123/1/5
f 127/1/5 126/1/5 125/1/5
f 127/1/5 125/1/5 124/1/5
f 128/1/5 126/1/5 127/1/5
f 129/1/5 126/1/5 128/1/5
f 130/1/5 126/1/5 129/1/5
f 131/1/5 129/1/5 128/1/5
f 132/1/5 129/1/5 131/1/5
f 133/1/6 134/1/6 135/1/6
f 135/1/6 134/1/6 136/1/6
f 136/1/6 134/1/6 137/1/6
f 137/1/6 134/1/6 138/1/6
f 133/1/6 135/1/6 139/1/6
f 135/2/6 136/2/6 139/2/6
f 136/1/6 137/1/6 140/1/6
f 139/2/6 136/2/6 140/2/6
f 137/2/6 138/2/6 141/2/6
f 140/1/6 137/1/6 141/1/6
f 138/1/6 134/1/6 142/1/6
f 141/2/6 138/2/6 142/2/6
f 140/1/6 141/1/6 143/1/6
f 139/1/6 140/1/6 143/1/6
f 141/1/6 142/1/6 143/1/6
f 133/1/6 139/1/6 143/1/6
f 143/1/6 142/1/6 144/1/6
f 144/1/6 142/1/6 145/1/6
f 142/1/6 134/1/6 146/1/6
f 145/1/6 142/1/6 146/1/6
f 133/1/6 143/1/6 147/1/6
f 143/2/6 144/2/6 147/2/6
f 144/1/6 145/1/6 148/1/6
f 147/2/6 144/2/6 148/2/6
f 145/2/6 146/2/6 149/2/6
f 148/1/6 145/1/6 149/1/6
f 146/1/6 134/1/6 150/1/6
f 149/2/6 146/2/6 150/2/6
f 133/1/6 147/1/6 151/1/6
f 148/1/6 149/1/6 151/1/6
f 149/1/6 150/1/6 151/1/6
f 147/1/6 148/1/6 151/1/6
f 150/1/6 134/1/6 152/1/6
f 151/1/6 150/1/6 152/1/6
